<svg width="64" height="64" viewBox="0 0 64 64" fill="none" xmlns="http://www.w3.org/2000/svg">
<path d="M32 30.6668C30.2319 30.6668 28.5362 29.9644 27.2859 28.7142C26.0357 27.464 25.3333 25.7683 25.3333 24.0002C25.3333 22.2321 26.0357 20.5364 27.2859 19.2861C28.5362 18.0359 30.2319 17.3335 32 17.3335C33.7681 17.3335 35.4638 18.0359 36.714 19.2861C37.9643 20.5364 38.6666 22.2321 38.6666 24.0002C38.6666 24.8756 38.4942 25.7425 38.1592 26.5514C37.8241 27.3602 37.3331 28.0951 36.714 28.7142C36.095 29.3333 35.36 29.8243 34.5512 30.1594C33.7424 30.4944 32.8755 30.6668 32 30.6668ZM32 5.3335C27.0493 5.3335 22.3013 7.30016 18.8007 10.8008C15.3 14.3015 13.3333 19.0495 13.3333 24.0002C13.3333 38.0002 32 58.6668 32 58.6668C32 58.6668 50.6666 38.0002 50.6666 24.0002C50.6666 19.0495 48.7 14.3015 45.1993 10.8008C41.6986 7.30016 36.9507 5.3335 32 5.3335Z" fill="white"/>
</svg>
