<svg width="64" height="64" viewBox="0 0 64 64" fill="none" xmlns="http://www.w3.org/2000/svg">
<path d="M10.6666 53.3332C9.19998 53.3332 7.94487 52.8114 6.90131 51.7678C5.85598 50.7225 5.33331 49.4665 5.33331 47.9998V15.9998C5.33331 14.5332 5.85598 13.2781 6.90131 12.2345C7.94487 11.1892 9.19998 10.6665 10.6666 10.6665H53.3333C54.8 10.6665 56.056 11.1892 57.1013 12.2345C58.1449 13.2781 58.6666 14.5332 58.6666 15.9998V47.9998C58.6666 49.4665 58.1449 50.7225 57.1013 51.7678C56.056 52.8114 54.8 53.3332 53.3333 53.3332H10.6666ZM53.3333 21.3332L33.4 33.7998C33.1778 33.9332 32.944 34.0327 32.6986 34.0985C32.4551 34.1661 32.2222 34.1998 32 34.1998C31.7778 34.1998 31.5449 34.1661 31.3013 34.0985C31.056 34.0327 30.8222 33.9332 30.6 33.7998L10.6666 21.3332V47.9998H53.3333V21.3332ZM32 29.3332L53.3333 15.9998H10.6666L32 29.3332ZM10.6666 21.3332V21.9998V18.0665V18.1332V15.9998V18.1332V18.0985V21.9998V21.3332V47.9998V21.3332Z" fill="white"/>
</svg>
