<svg width="64" height="64" viewBox="0 0 64 64" fill="none" xmlns="http://www.w3.org/2000/svg">
<path d="M53.3333 32C52.6222 32 51.9893 31.744 51.4347 31.232C50.8782 30.7218 50.5556 30.0889 50.4667 29.3333C49.8889 25.2 48.1449 21.6773 45.2347 18.7653C42.3227 15.8551 38.8 14.1111 34.6667 13.5333C33.9111 13.4444 33.2782 13.1333 32.768 12.6C32.256 12.0667 32 11.4222 32 10.6667C32 9.91111 32.2667 9.27733 32.8 8.76533C33.3333 8.25511 33.9556 8.04444 34.6667 8.13333C40.2667 8.75556 45.0444 11.0444 49 15C52.9556 18.9556 55.2444 23.7333 55.8667 29.3333C55.9556 30.0444 55.744 30.6667 55.232 31.2C54.7218 31.7333 54.0889 32 53.3333 32ZM42.2 32C41.6222 32 41.1111 31.8 40.6667 31.4C40.2222 31 39.8889 30.4667 39.6667 29.8C39.3111 28.5111 38.6338 27.3662 37.6347 26.3653C36.6338 25.3662 35.4889 24.6889 34.2 24.3333C33.5333 24.1111 33 23.7778 32.6 23.3333C32.2 22.8889 32 22.3556 32 21.7333C32 20.8444 32.3111 20.1218 32.9333 19.5653C33.5556 19.0107 34.2444 18.8222 35 19C37.4889 19.5778 39.6338 20.7662 41.4347 22.5653C43.2338 24.3662 44.4222 26.5111 45 29C45.1778 29.7556 44.9778 30.4444 44.4 31.0667C43.8222 31.6889 43.0889 32 42.2 32ZM53.2 56C47.4667 56 41.8782 54.7218 36.4347 52.1653C30.9893 49.6107 26.1671 46.2329 21.968 42.032C17.7671 37.8329 14.3893 33.0107 11.8347 27.5653C9.27822 22.1218 8 16.5333 8 10.8C8 10 8.26667 9.33333 8.8 8.8C9.33333 8.26667 10 8 10.8 8H21.6C22.2222 8 22.7778 8.2 23.2667 8.6C23.7556 9 24.0444 9.51111 24.1333 10.1333L25.8667 19.4667C25.9556 20.0889 25.9449 20.6551 25.8347 21.1653C25.7227 21.6773 25.4667 22.1333 25.0667 22.5333L18.6667 29.0667C20.5333 32.2667 22.8667 35.2667 25.6667 38.0667C28.4667 40.8667 31.5556 43.2889 34.9333 45.3333L41.2 39.0667C41.6 38.6667 42.1227 38.3662 42.768 38.1653C43.4116 37.9662 44.0444 37.9111 44.6667 38L53.8667 39.8667C54.4889 40 55 40.2996 55.4 40.7653C55.8 41.2329 56 41.7778 56 42.4V53.2C56 54 55.7333 54.6667 55.2 55.2C54.6667 55.7333 54 56 53.2 56Z" fill="white"/>
</svg>
