<svg width="65" height="66" viewBox="0 0 65 66" fill="none" xmlns="http://www.w3.org/2000/svg">
<path d="M20 17.2631V37.2327C20.0001 37.7217 20.1211 38.2017 20.35 38.6222C20.579 39.0428 20.9076 39.3884 21.3014 39.6228C21.6952 39.8573 22.1396 39.9719 22.588 39.9547C23.0364 39.9375 23.4723 39.7891 23.85 39.525L39.2433 28.7755C39.4787 28.6112 39.6723 28.385 39.8064 28.1177C39.9406 27.8504 40.0109 27.5507 40.0109 27.2461C40.0109 26.9415 39.9406 26.6417 39.8064 26.3745C39.6723 26.1072 39.4787 25.881 39.2433 25.7167L23.85 14.9672C23.4721 14.703 23.0359 14.5545 22.5872 14.5374C22.1385 14.5204 21.6938 14.6353 21.2999 14.8702C20.9061 15.1051 20.5775 15.4513 20.3488 15.8723C20.12 16.2934 19.9995 16.7738 20 17.2631ZM10.8333 0C7.96015 0 5.20465 1.24391 3.17301 3.45808C1.14137 5.67226 0 8.67533 0 11.8066V44.502C0 47.6333 1.14137 50.6363 3.17301 52.8505C5.20465 55.0647 7.96015 56.3086 10.8333 56.3086H45.8333C48.7065 56.3086 51.462 55.0647 53.4937 52.8505C55.5253 50.6363 56.6667 47.6333 56.6667 44.502V11.8066C56.6667 8.67533 55.5253 5.67226 53.4937 3.45808C51.462 1.24391 48.7065 0 45.8333 0H10.8333ZM5 11.8066C5 8.29734 7.61333 5.44922 10.8333 5.44922H45.8333C49.0533 5.44922 51.6667 8.29734 51.6667 11.8066V44.502C51.6667 46.188 51.0521 47.8051 49.9581 48.9973C48.8642 50.1896 47.3804 50.8594 45.8333 50.8594H10.8333C9.28624 50.8594 7.80251 50.1896 6.70854 48.9973C5.61458 47.8051 5 46.188 5 44.502V11.8066ZM10.0333 59.9414C11.0126 61.6133 12.3628 62.9892 13.9592 63.9416C15.5557 64.8941 17.3467 65.3925 19.1667 65.3906H47.5C57.1667 65.3906 65 56.8535 65 46.3184V20.8887C65.0008 18.9054 64.5431 16.9538 63.6692 15.2141C62.7954 13.4744 61.5335 12.0027 60 10.9348V46.3184C60 49.9314 58.683 53.3965 56.3388 55.9513C53.9946 58.5061 50.8152 59.9414 47.5 59.9414H10.0333Z" fill="#E71212"/>
</svg>
