<svg width="40" height="40" viewBox="0 0 40 40" fill="none" xmlns="http://www.w3.org/2000/svg">
<path d="M40 4.74473C38.529 5.54653 36.9488 6.08828 35.2876 6.33316C37.0017 5.0715 38.2841 3.0858 38.8954 0.746578C37.285 1.92325 35.5225 2.7515 33.6845 3.19531C32.4485 1.57192 30.8113 0.495911 29.0273 0.134339C27.2432 -0.227233 25.412 0.145862 23.8179 1.1957C22.2239 2.24554 20.9562 3.91338 20.2117 5.94028C19.4672 7.96719 19.2875 10.2398 19.7005 12.4051C16.4374 12.2036 13.2452 11.1603 10.3311 9.34294C7.41693 7.52558 4.84602 4.97478 2.78517 1.85609C2.08051 3.35134 1.67533 5.08495 1.67533 6.93125C1.67454 8.59335 2.00728 10.23 2.64402 11.696C3.28076 13.1619 4.20182 14.4119 5.32546 15.335C4.02233 15.284 2.74795 14.8508 1.60839 14.0716V14.2016C1.60825 16.5328 2.26378 18.7922 3.46372 20.5965C4.66367 22.4008 6.33413 23.6388 8.19167 24.1006C6.9828 24.503 5.71538 24.5623 4.48516 24.2739C5.00924 26.2797 6.03012 28.0338 7.40486 29.2904C8.7796 30.5471 10.4394 31.2434 12.1519 31.2821C9.24484 34.0892 5.65469 35.612 1.95895 35.6053C1.30429 35.6055 0.650183 35.5585 0 35.4644C3.75139 38.4314 8.11828 40.0061 12.5782 40C27.6755 40 35.9288 24.6185 35.9288 11.2783C35.9288 10.8449 35.92 10.4072 35.9042 9.97375C37.5095 8.54563 38.8953 6.77717 39.9965 4.75123L40 4.74473Z" fill="white"/>
</svg>
