<svg width="80" height="80" viewBox="0 0 80 80" fill="none" xmlns="http://www.w3.org/2000/svg">
<path d="M80 9.48946C77.058 11.0931 73.8977 12.1766 70.5752 12.6663C74.0033 10.143 76.5681 6.17161 77.7909 1.49316C74.5701 3.84649 71.045 5.50299 67.369 6.39062C64.897 3.14384 61.6227 0.991822 58.0545 0.268678C54.4864 -0.454466 50.8239 0.291724 47.6358 2.3914C44.4477 4.49107 41.9124 7.82676 40.4233 11.8806C38.9343 15.9344 38.575 20.4795 39.401 24.8103C32.8748 24.4072 26.4904 22.3206 20.6621 18.6859C14.8339 15.0512 9.69203 9.94957 5.57033 3.71219C4.16101 6.70267 3.35066 10.1699 3.35066 13.8625C3.34908 17.1867 4.01456 20.46 5.28804 23.3919C6.56152 26.3238 8.40363 28.8238 10.6509 30.6699C8.04466 30.5679 5.4959 29.7016 3.21677 28.1432V28.4032C3.21651 33.0655 4.52755 37.5843 6.92745 41.1929C9.32734 44.8015 12.6683 47.2777 16.3833 48.2011C13.9656 49.006 11.4308 49.1246 8.97032 48.5478C10.0185 52.5595 12.0602 56.0675 14.8097 58.5808C17.5592 61.0941 20.8788 62.4869 24.3037 62.5641C18.4897 68.1785 11.3094 71.2239 3.91791 71.2105C2.60858 71.211 1.30037 71.1169 0 70.9288C7.50278 76.8629 16.2366 80.0122 25.1563 80C55.351 80 71.8577 49.2369 71.8577 22.5566C71.8577 21.6898 71.84 20.8143 71.8083 19.9475C75.0191 17.0913 77.7906 13.5543 79.993 9.50246L80 9.48946Z" fill="#1FBCD3"/>
</svg>
